<svg width="266" height="163" viewBox="0 0 181 222" fill="none" xmlns="http://www.w3.org/2000/svg">
<g clip-path="url(#clip0_27_135)">
<path d="M12.7404 221.43L160.436 115.839V8.32739L12.7404 113.898V221.43Z" fill="url(#paint0_linear_27_135)"/>
<path d="M12.7403 221.43L0.609802 213.581V106.063L12.7403 113.899V221.43Z" fill="#1F1F1F"/>
<path d="M148.305 0.430176L160.436 8.38228L12.7403 113.953L0.609802 106.111L148.305 0.430176Z" fill="url(#paint1_linear_27_135)"/>
<path d="M126.146 99.0433L180.61 60.1123V20.4614L126.146 59.3925V99.0433Z" fill="url(#paint2_linear_27_135)"/>
<path d="M126.146 99.0433L121.675 96.1503V56.5063L126.146 59.3924V99.0433Z" fill="#1F1F1F"/>
<path d="M176.14 17.5479L180.61 20.4819L126.146 59.4129L121.675 56.52L176.14 17.5479Z" fill="url(#paint3_linear_27_135)"/>
<path d="M154.151 54.2098L147.573 58.5492C147.593 56.2869 147.798 54.5183 148.175 53.2432C148.552 51.9681 149.359 50.5559 150.605 48.9929C151.837 47.4505 153.391 46.0863 155.253 44.9141C156.588 44.0777 157.738 43.5567 158.717 43.3442C159.689 43.1317 160.463 43.2071 161.024 43.5704C161.593 43.9269 162.003 44.441 162.263 45.106C162.524 45.771 162.654 46.9843 162.654 48.7599V51.735C162.654 53.0855 162.53 54.2578 162.277 55.2518C162.024 56.2458 161.476 57.3427 160.627 58.556C159.772 59.7694 158.765 60.784 157.595 61.5929C156.061 62.6555 154.911 62.8611 154.151 62.203V64.8972L148.018 69.168V62.1345L154.008 58.1036C154.028 59.0359 154.377 59.2758 155.055 58.8165C155.582 58.4601 155.917 58.0282 156.054 57.514C156.198 56.9999 156.267 55.9373 156.267 54.3195V50.1858C156.267 49.274 156.198 48.705 156.068 48.4788C155.938 48.2526 155.678 48.2594 155.288 48.5131C154.802 48.8216 154.487 49.2329 154.35 49.7402C154.213 50.2475 154.144 51.2346 154.144 52.6948V54.2098H154.151ZM154.151 66.1722V71.1834L148.018 75.5914V70.4705L154.151 66.1722Z" fill="#231F20"/>
<path opacity="0.8" d="M66.739 115.578L79.3213 123.064L101.446 78.9573L107.868 83.1047L81.998 135.39L62.7411 124.181L66.739 115.578Z" fill="#8A8473"/>
</g>
<defs>
<linearGradient id="paint0_linear_27_135" x1="17.9221" y1="212.282" x2="112.737" y2="25.1718" gradientUnits="userSpaceOnUse">
<stop stop-color="#52461C"/>
<stop offset="0.23" stop-color="#393215"/>
<stop offset="0.5" stop-color="#242010"/>
<stop offset="0.76" stop-color="#17150D"/>
<stop offset="1" stop-color="#13120C"/>
</linearGradient>
<linearGradient id="paint1_linear_27_135" x1="157.848" y1="59.0153" x2="7.14718" y2="55.4742" gradientUnits="userSpaceOnUse">
<stop stop-color="#706952"/>
<stop offset="1" stop-color="#918B7B"/>
</linearGradient>
<linearGradient id="paint2_linear_27_135" x1="175.051" y1="71.3343" x2="132.177" y2="48.4808" gradientUnits="userSpaceOnUse">
<stop stop-color="#574D33"/>
<stop offset="1" stop-color="#736B56"/>
</linearGradient>
<linearGradient id="paint3_linear_27_135" x1="179.658" y1="39.1556" x2="124.085" y2="37.8499" gradientUnits="userSpaceOnUse">
<stop stop-color="#706952"/>
<stop offset="1" stop-color="#918B7B"/>
</linearGradient>
<clipPath id="clip0_27_135">
<rect width="180" height="221" fill="white" transform="translate(0.609802 0.430176)"/>
</clipPath>
</defs>
</svg>
