<svg width="463" height="463" viewBox="0 0 463 463" fill="none" xmlns="http://www.w3.org/2000/svg">
<path fill-rule="evenodd" clip-rule="evenodd" d="M453.844 231.143V231.143L454.161 233.373L455.001 235.621L456.201 237.897L457.602 240.206L459.043 242.548L460.372 244.914L461.441 247.291L462.114 249.66L462.27 252.001L461.814 254.288L460.674 256.494L458.812 258.596L456.223 260.57L452.934 262.399L449.003 264.07L444.515 265.577L439.575 266.922L434.302 268.112L428.823 269.161L423.265 270.089L417.753 270.918L412.401 271.676L407.315 272.393L402.591 273.1L398.311 273.828L394.551 274.613L391.378 275.49L388.858 276.495L387.052 277.669L386.028 279.055L385.86 280.704L386.637 282.673L388.467 285.031L391.484 287.862L395.865 291.272L401.834 295.392L409.692 300.396L419.838 306.511L432.814 314.041L425.272 313.22L412.24 309.854L401.911 307.404L393.766 305.726L387.416 304.714L382.567 304.29L378.993 304.396L376.519 304.99L375.003 306.039L374.331 307.519L374.409 309.41L375.152 311.697L376.487 314.362L378.34 317.389L380.641 320.757L383.313 324.44L386.279 328.407L389.453 332.616L392.743 337.019L396.05 341.558L399.272 346.167L402.304 350.771L405.044 355.293L407.397 359.653L409.278 363.773L410.622 367.584L411.382 371.028L411.537 374.062L411.095 376.664L410.085 378.831L408.564 380.584L406.609 381.962L404.314 383.027L401.782 383.852L399.127 384.528L396.461 385.154L393.9 385.837L391.555 386.69L389.534 387.834L387.941 389.392L386.768 391.382L385.896 393.705L385.204 396.253L384.577 398.914L383.909 401.575L383.099 404.121L382.057 406.439L380.705 408.425L378.984 409.983L376.851 411.036L374.284 411.525L371.284 411.417L367.871 410.705L364.088 409.407L359.99 407.566L355.646 405.248L351.134 402.535L346.533 399.523L341.922 396.312L337.375 393.008L332.959 389.713L328.732 386.527L324.745 383.541L321.038 380.842L317.644 378.509L314.589 376.618L311.894 375.239L309.577 374.446L307.653 374.312L306.14 374.921L305.056 376.366L304.425 378.759L304.278 382.239L304.658 386.979L305.621 393.2L307.243 401.19L309.626 411.327L312.913 424.121L314.712 433.99L307.053 420.761L300.838 410.411L295.754 402.387L291.57 396.279L288.11 391.782L285.237 388.663L282.844 386.744L280.847 385.887L279.175 385.983L277.769 386.942L276.581 388.688L275.564 391.154L274.678 394.277L273.887 397.993L273.155 402.234L272.448 406.926L271.733 411.986L270.979 417.32L270.157 422.824L269.238 428.383L268.199 433.872L267.021 439.166L265.689 444.138L264.195 448.666L262.536 452.645L260.72 455.988L258.756 458.634L256.664 460.554L254.465 461.75L252.184 462.259L249.847 462.148L247.479 461.512L245.101 460.47L242.734 459.157L240.391 457.718L238.078 456.309L235.8 455.087L233.55 454.212L231.319 453.847L229.09 454.115L226.844 454.92L224.571 456.097L222.264 457.488L219.925 458.932L217.561 460.276L215.184 461.37L212.813 462.079L210.469 462.28L208.177 461.875L205.963 460.792L203.853 458.989L201.868 456.457L200.027 453.222L198.343 449.339L196.822 444.891L195.464 439.983L194.263 434.732L193.203 429.265L192.267 423.709L191.43 418.189L190.667 412.82L189.948 407.709L189.242 402.953L188.516 398.635L187.737 394.831L186.869 391.609L185.876 389.034L184.717 387.169L183.35 386.08L181.724 385.841L179.783 386.54L177.458 388.281L174.668 391.198L171.309 395.462L167.251 401.295L162.325 408.99L156.308 418.936L148.904 431.662L148.752 426.446L152.199 413.172L154.716 402.649L156.451 394.346L157.513 387.864L157.982 382.905L157.916 379.237L157.36 376.68L156.346 375.092L154.9 374.357L153.04 374.378L150.785 375.072L148.149 376.362L145.15 378.177L141.808 380.444L138.149 383.09L134.204 386.036L130.012 389.196L125.623 392.48L121.092 395.789L116.486 399.022L111.879 402.073L107.347 404.84L102.972 407.227L98.8295 409.148L94.9916 410.537L91.5169 411.344L88.4489 411.548L85.8124 411.152L83.611 410.186L81.8265 408.704L80.4201 406.78L79.3335 404.508L78.492 401.991L77.8076 399.341L77.1816 396.672L76.5074 394.099L75.6717 391.732L74.5554 389.682L73.0346 388.052L71.0755 386.85L68.7747 385.958L66.2405 385.256L63.5841 384.629L60.9193 383.967L58.3604 383.172L56.02 382.151L54.0043 380.827L52.4089 379.137L51.3134 377.038L50.7775 374.506L50.837 371.54L51.5015 368.159L52.7545 364.403L54.5542 360.327L56.837 356.001L59.5217 351.499L62.5141 346.902L65.7127 342.289L69.0132 337.734L72.3122 333.305L75.5107 329.062L78.5157 325.054L81.2407 321.323L83.6055 317.903L85.5348 314.821L86.9568 312.096L87.7995 309.748L87.9885 307.793L87.4423 306.246L86.0678 305.127L83.7543 304.459L80.3665 304.272L75.7344 304.609L69.6411 305.522L61.8049 307.088L51.8549 309.407L39.2951 312.615L27.0965 315.397L40.585 307.606L51.1412 301.289L59.3339 296.125L65.5819 291.876L70.1983 288.363L73.4202 285.448L75.4289 283.02L76.3657 280.994L76.3423 279.299L75.4495 277.874L73.7636 276.67L71.3524 275.64L68.2796 274.746L64.6088 273.949L60.4069 273.213L55.7477 272.505L50.7135 271.792L45.3972 271.043L39.9028 270.227L34.3443 269.316L28.8444 268.288L23.5302 267.122L18.5288 265.802L13.961 264.321L9.93492 262.676L6.53885 260.871L3.83559 258.919L1.8577 256.836L0.604861 254.645L0.0434183 252.37L0.108137 250.036L0.705813 247.669L1.72018 245.292L3.01742 242.923L4.45152 240.577L5.86895 238.263L7.11197 235.981L8.02045 233.73L8.43186 231.498L8.21329 229.269L7.44535 227.025L6.29142 224.754L4.91229 222.45L3.46658 220.113L2.10946 217.751L0.989778 215.375L0.245805 213.002L0 210.655L0.353489 208.358L1.38088 206.137L3.12619 204.018L5.60039 202.022L8.78123 200.169L12.6151 198.472L17.0213 196.938L21.8972 195.568L27.1254 194.354L32.5801 193.284L38.1335 192.338L43.6611 191.495L49.0459 190.727L54.1806 190.006L58.9687 189.3L63.3246 188.577L67.1722 187.803L70.4425 186.944L73.0712 185.962L74.9952 184.818L76.1484 183.468L76.4578 181.865L75.8378 179.951L74.1843 177.66L71.3664 174.911L67.2169 171.602L61.5184 167.605L53.9849 162.755L44.235 156.835L31.7537 149.555L34.6433 148.434L48.1654 151.962L58.8856 154.547L67.3498 156.34L73.964 157.452L79.0353 157.966L82.7991 157.941L85.4387 157.423L87.0993 156.444L87.8985 155.032L87.9344 153.204L87.2915 150.98L86.0462 148.373L84.2708 145.403L82.0367 142.088L79.4181 138.453L76.4932 134.529L73.3465 130.355L70.069 125.98L66.758 121.458L63.5156 116.855L60.4462 112.245L57.6529 107.704L55.2325 103.314L53.271 99.1503L51.8383 95.2858L50.9833 91.7803L50.7309 88.6788L51.0798 86.0076L52.0024 83.7718L53.4463 81.9554L55.3379 80.5207L57.586 79.4112L60.0872 78.5532L62.7308 77.8598L65.4023 77.233L67.9876 76.5667L70.3746 75.7481L72.4541 74.6587L74.1206 73.174L75.3525 71.2466L76.2643 68.9691L76.9774 66.4495L77.6068 63.7987L78.2615 61.1303L79.0428 58.5588L80.0425 56.197L81.3399 54.1518L82.9988 52.5197L85.0644 51.382L87.5617 50.7999L90.4939 50.8113L93.8429 51.4279L97.5709 52.6352L101.623 54.3934L105.933 56.6406L110.423 59.2965L115.015 62.2681L119.63 65.4541L124.192 68.7503L128.633 72.0531L132.894 75.2631L136.922 78.2868L140.676 81.0371L144.122 83.4333L147.232 85.4001L149.986 86.865L152.364 87.7566L154.352 88.0005L155.932 87.5161L157.085 86.2113L157.79 83.9772L158.016 80.6806L157.724 76.1548L156.858 70.1872L155.348 62.502L153.094 52.7365L149.962 40.4066L146.192 25.876L154.117 39.6283L160.539 50.3949L165.785 58.7587L170.1 65.1489L173.665 69.8858L176.625 73.2114L179.087 75.3111L181.143 76.3289L182.862 76.3784L184.306 75.5518L185.527 73.9265L186.568 71.5707L187.472 68.5483L188.276 64.9227L189.015 60.7605L189.724 56.1348L190.435 51.1272L191.181 45.8297L191.991 40.3454L192.892 34.7877L193.91 29.2785L195.065 23.9448L196.372 18.9139L197.84 14.3074L199.473 10.2347L201.265 6.78576L203.206 4.02571L205.279 1.98963L207.462 0.679849L209.732 0.0653414L212.062 0.0832728L214.427 0.642498L216.804 1.62839L219.174 2.90832L221.522 4.33708L223.84 5.76158L226.123 7.02433L228.377 7.96537L230.61 8.4224L232.838 8.25421L235.081 7.524L237.349 6.39488L239.65 5.02784L241.985 3.58168L244.346 2.21194L246.721 1.06812L249.095 0.289498L251.445 0L253.746 0.302652L255.974 1.27435L258.103 2.96163L260.11 5.37818L261.974 8.50432L263.684 12.2888L265.231 16.6529L266.614 21.4956L267.84 26.7003L268.921 32.1416L269.876 37.6918L270.726 43.2259L271.499 48.6262L272.223 53.7844L272.929 58.6034L273.649 62.9966L274.418 66.8873L275.269 70.2059L276.24 72.8881L277.369 74.8705L278.701 76.0877L280.282 76.4672L282.169 75.9248L284.427 74.3579L287.136 71.6383L290.397 67.602L294.333 62.0363L299.108 54.6615L304.933 45.1049L312.092 32.864L314.179 33.4268L310.567 47.2009L307.913 58.122L306.062 66.7494L304.898 73.4986L304.34 78.6833L304.324 82.5439L304.804 85.2673L305.747 87.0012L307.126 87.8653L308.92 87.9587L311.114 87.367L313.691 86.167L316.633 84.4311L319.922 82.2309L323.532 79.6401L327.434 76.7366L331.589 73.6043L335.951 70.3337L340.464 67.0217L345.062 63.77L349.675 60.6831L354.224 57.8641L358.629 55.4107L362.813 53.4099L366.704 51.9329L370.24 51.0306L373.375 50.73L376.081 51.0317L378.351 51.9102L380.2 53.3151L381.663 55.1741L382.796 57.3975L383.671 59.8826L384.374 62.5189L385.002 65.1924L385.661 67.7887L386.464 70.1955L387.527 72.3035L388.976 74.0062L390.871 75.2689L393.124 76.2017L395.629 76.9263L398.273 77.5583L400.944 78.2072L403.528 78.9749L405.91 79.9542L407.984 81.2253L409.653 82.8535L410.832 84.8855L411.46 87.348L411.497 90.246L410.928 93.5629L409.767 97.2625L408.051 101.291L405.84 105.583L403.213 110.062L400.263 114.649L397.09 119.264L393.799 123.833L390.493 128.287L387.272 132.563L384.23 136.612L381.455 140.389L379.028 143.86L377.024 146.998L375.517 149.781L374.577 152.19L374.279 154.209L374.702 155.822L375.938 157.011L378.093 157.753L381.3 158.018L385.72 157.768L391.564 156.951L399.1 155.495L408.684 153.304L420.789 150.249L436.054 146.149L423.634 153.548L412.653 160.076L404.115 165.406L397.581 169.787L392.722 173.407L389.292 176.41L387.1 178.908L386.001 180.993L385.878 182.737L386.637 184.201L388.202 185.438L390.502 186.492L393.473 187.405L397.053 188.216L401.175 188.959L405.767 189.669L410.747 190.379L416.025 191.121L421.499 191.924L427.055 192.818L432.573 193.826L437.925 194.969L442.985 196.263L447.629 197.719L451.748 199.338L455.249 201.118L458.066 203.047L460.16 205.11L461.527 207.286L462.195 209.55L462.225 211.876L461.705 214.239L460.748 216.616L459.486 218.987L458.064 221.337L456.633 223.657L455.352 225.944L454.379 228.2L453.878 230.434L453.844 231.143Z" fill="#C9C9C9" fill-opacity="0.2"/>
</svg>
