<svg width="266" height="163" viewBox="0 0 266 163" fill="none" xmlns="http://www.w3.org/2000/svg">
<g opacity="0.15" clip-path="url(#clip0_25_35)">
<path d="M4.78843 162.13L0.817291 159.211V78.3419L4.78843 81.2658V162.13Z" fill="url(#paint0_linear_25_35)"/>
<path d="M52.4976 41.7785V41.1774C52.4976 33.0681 56.827 30.5415 59.7688 28.5244C70.9959 20.8072 85.3616 11.0576 97.7645 2.70886C104.551 -1.8603 107.68 3.19277 107.68 8.50563V8.97426C107.559 7.08445 105.126 3.59518 101.438 6.10135C91.7094 12.7284 73.206 25.3356 65.1225 30.8879C62.1858 32.9051 57.8513 35.4367 57.8513 43.541V43.7243L52.5026 47.509L4.78341 81.2658L0.817322 78.3471L52.4976 41.7785Z" fill="url(#paint1_linear_25_35)"/>
<path d="M57.8513 43.7295C57.8513 42.6649 57.8513 44.3408 57.8513 43.5461C57.8513 35.4368 62.1857 32.9051 65.1225 30.8931C73.206 25.3408 91.7094 12.7336 101.438 6.1065C105.222 3.53412 107.685 7.28317 107.685 9.12205V89.3396L4.78845 162.13V81.2659L57.8513 43.7295Z" fill="url(#paint2_linear_25_35)"/>
<path d="M10.1977 153.833L105.601 87.5415V20.3845L10.1977 86.6756V153.833Z" fill="#1E1E1E"/>
<path d="M10.1977 153.833L7.31644 151.703V84.5413L10.1977 86.6756V153.833Z" fill="#939070"/>
<path d="M102.73 18.2146L105.601 20.3846L10.1926 86.6807L7.31644 84.5413L102.73 18.2146Z" fill="#A09B83"/>
<path d="M4.82376 162.202L107.725 89.4058L154.238 20.6799L51.337 93.4656L4.82376 162.202Z" fill="url(#paint3_linear_25_35)"/>
<path d="M4.82375 162.202L0.847565 159.278L47.3608 90.5519L51.3319 93.4655L4.82375 162.202Z" fill="url(#paint4_linear_25_35)"/>
<path d="M150.287 17.7256L154.238 20.68L51.3269 93.4657L47.3608 90.552L150.287 17.7256Z" fill="url(#paint5_linear_25_35)"/>
</g>
<g opacity="0.5" clip-path="url(#clip1_25_35)">
<path d="M66.8704 162.13L62.8993 159.211V78.3419L66.8704 81.2658V162.13Z" fill="url(#paint6_linear_25_35)"/>
<path d="M114.58 41.7785V41.1774C114.58 33.0681 118.909 30.5415 121.851 28.5244C133.078 20.8072 147.444 11.0576 159.846 2.70886C166.633 -1.8603 169.762 3.19277 169.762 8.50563V8.97426C169.641 7.08445 167.208 3.59518 163.52 6.10135C153.791 12.7284 135.288 25.3356 127.204 30.8879C124.268 32.9051 119.933 35.4367 119.933 43.541V43.7243L114.585 47.509L66.8654 81.2658L62.8993 78.3471L114.58 41.7785Z" fill="url(#paint7_linear_25_35)"/>
<path d="M119.933 43.7295C119.933 42.6649 119.933 44.3408 119.933 43.5461C119.933 35.4368 124.268 32.9051 127.204 30.8931C135.288 25.3408 153.791 12.7336 163.52 6.1065C167.304 3.53412 169.767 7.28317 169.767 9.12205V89.3396L66.8704 162.13V81.2659L119.933 43.7295Z" fill="url(#paint8_linear_25_35)"/>
<path d="M72.2797 153.833L167.683 87.5415V20.3845L72.2797 86.6756V153.833Z" fill="#1E1E1E"/>
<path d="M72.2797 153.833L69.3984 151.703V84.5413L72.2797 86.6756V153.833Z" fill="#939070"/>
<path d="M164.812 18.2146L167.683 20.3846L72.2746 86.6807L69.3984 84.5413L164.812 18.2146Z" fill="#A09B83"/>
<path d="M66.9058 162.202L169.807 89.4058L216.32 20.6799L113.419 93.4656L66.9058 162.202Z" fill="url(#paint9_linear_25_35)"/>
<path d="M66.9057 162.202L62.9296 159.278L109.443 90.5519L113.414 93.4655L66.9057 162.202Z" fill="url(#paint10_linear_25_35)"/>
<path d="M212.369 17.7256L216.32 20.68L113.409 93.4657L109.443 90.552L212.369 17.7256Z" fill="url(#paint11_linear_25_35)"/>
</g>
<g clip-path="url(#clip2_25_35)">
<path d="M114.718 162.13L110.71 159.211V78.3419L114.718 81.2658V162.13Z" fill="#1F1F1F"/>
<path d="M162.871 41.7785V41.1774C162.871 33.0681 167.24 30.5415 170.209 28.5244C181.541 20.8072 196.04 11.0576 208.559 2.70886C215.409 -1.8603 218.566 3.19277 218.566 8.50563V8.97426C218.444 7.08445 215.989 3.59518 212.266 6.10135C202.447 12.7284 183.772 25.3356 175.613 30.8879C172.649 32.9051 168.274 35.4367 168.274 43.541V43.7243L162.876 47.509L114.713 81.2658L110.71 78.3471L162.871 41.7785Z" fill="url(#paint12_linear_25_35)"/>
<path d="M168.274 43.7295C168.274 42.6649 168.274 44.3408 168.274 43.5461C168.274 35.4368 172.649 32.9051 175.613 30.8931C183.772 25.3408 202.447 12.7336 212.266 6.1065C216.086 3.53412 218.571 7.28317 218.571 9.12205V89.3396L114.718 162.13V81.2659L168.274 43.7295Z" fill="url(#paint13_linear_25_35)"/>
<path d="M120.177 153.833L216.468 87.5415V20.3845L120.177 86.6756V153.833Z" fill="#161616"/>
<path d="M120.177 153.833L117.269 151.703V84.5413L120.177 86.6756V153.833Z" fill="#494949"/>
<path d="M213.57 18.2146L216.468 20.3846L120.172 86.6807L117.269 84.5413L213.57 18.2146Z" fill="#626262"/>
<path d="M114.753 162.202L218.612 89.4058L265.558 20.6799L161.699 93.4656L114.753 162.202Z" fill="url(#paint14_linear_25_35)"/>
<path d="M114.753 162.202L110.74 159.278L157.686 90.5519L161.694 93.4655L114.753 162.202Z" fill="#1F1F1F"/>
<path d="M261.57 17.7256L265.558 20.68L161.689 93.4657L157.686 90.552L261.57 17.7256Z" fill="url(#paint15_linear_25_35)"/>
</g>
<defs>
<linearGradient id="paint0_linear_25_35" x1="0.817291" y1="120.239" x2="4.78843" y2="120.239" gradientUnits="userSpaceOnUse">
<stop stop-color="#52461C"/>
<stop offset="1" stop-color="#6E633D"/>
</linearGradient>
<linearGradient id="paint1_linear_25_35" x1="0.817322" y1="41.0959" x2="107.68" y2="41.0959" gradientUnits="userSpaceOnUse">
<stop stop-color="#8D8264"/>
<stop offset="1" stop-color="#6B6239"/>
</linearGradient>
<linearGradient id="paint2_linear_25_35" x1="4.78845" y1="83.6804" x2="107.685" y2="83.6804" gradientUnits="userSpaceOnUse">
<stop stop-color="#75692A"/>
<stop offset="1" stop-color="#958E72"/>
</linearGradient>
<linearGradient id="paint3_linear_25_35" x1="4.82376" y1="91.4383" x2="154.238" y2="91.4383" gradientUnits="userSpaceOnUse">
<stop stop-color="#75692A"/>
<stop offset="1" stop-color="#9E9D82"/>
</linearGradient>
<linearGradient id="paint4_linear_25_35" x1="0.847565" y1="126.377" x2="51.332" y2="126.377" gradientUnits="userSpaceOnUse">
<stop stop-color="#52461C"/>
<stop offset="1" stop-color="#6E633D"/>
</linearGradient>
<linearGradient id="paint5_linear_25_35" x1="47.3608" y1="55.5982" x2="154.238" y2="55.5982" gradientUnits="userSpaceOnUse">
<stop stop-color="#8D8264"/>
<stop offset="1" stop-color="#6B6239"/>
</linearGradient>
<linearGradient id="paint6_linear_25_35" x1="62.8993" y1="120.239" x2="66.8704" y2="120.239" gradientUnits="userSpaceOnUse">
<stop stop-color="#52461C"/>
<stop offset="1" stop-color="#6E633D"/>
</linearGradient>
<linearGradient id="paint7_linear_25_35" x1="62.8993" y1="41.0959" x2="169.762" y2="41.0959" gradientUnits="userSpaceOnUse">
<stop stop-color="#8D8264"/>
<stop offset="1" stop-color="#6B6239"/>
</linearGradient>
<linearGradient id="paint8_linear_25_35" x1="66.8704" y1="83.6804" x2="169.767" y2="83.6804" gradientUnits="userSpaceOnUse">
<stop stop-color="#75692A"/>
<stop offset="1" stop-color="#958E72"/>
</linearGradient>
<linearGradient id="paint9_linear_25_35" x1="66.9058" y1="91.4383" x2="216.32" y2="91.4383" gradientUnits="userSpaceOnUse">
<stop stop-color="#75692A"/>
<stop offset="1" stop-color="#9E9D82"/>
</linearGradient>
<linearGradient id="paint10_linear_25_35" x1="62.9296" y1="126.377" x2="113.414" y2="126.377" gradientUnits="userSpaceOnUse">
<stop stop-color="#52461C"/>
<stop offset="1" stop-color="#6E633D"/>
</linearGradient>
<linearGradient id="paint11_linear_25_35" x1="109.443" y1="55.5982" x2="216.32" y2="55.5982" gradientUnits="userSpaceOnUse">
<stop stop-color="#8D8264"/>
<stop offset="1" stop-color="#6B6239"/>
</linearGradient>
<linearGradient id="paint12_linear_25_35" x1="110.71" y1="41.0959" x2="218.566" y2="41.0959" gradientUnits="userSpaceOnUse">
<stop stop-color="#8D8264"/>
<stop offset="1" stop-color="#6B6239"/>
</linearGradient>
<linearGradient id="paint13_linear_25_35" x1="114.718" y1="83.6804" x2="218.571" y2="83.6804" gradientUnits="userSpaceOnUse">
<stop stop-color="#1E1E1E"/>
<stop offset="1" stop-color="#626262"/>
</linearGradient>
<linearGradient id="paint14_linear_25_35" x1="114.753" y1="91.4383" x2="265.558" y2="91.4383" gradientUnits="userSpaceOnUse">
<stop stop-color="#A09B83"/>
<stop offset="1" stop-color="#2C2C2C"/>
</linearGradient>
<linearGradient id="paint15_linear_25_35" x1="157.686" y1="55.5982" x2="265.558" y2="55.5982" gradientUnits="userSpaceOnUse">
<stop stop-color="#8D8264"/>
<stop offset="1" stop-color="#6B6239"/>
</linearGradient>
<clipPath id="clip0_25_35">
<rect width="153.421" height="161.271" fill="white" transform="translate(0.817291 0.931274)"/>
</clipPath>
<clipPath id="clip1_25_35">
<rect width="153.421" height="161.271" fill="white" transform="translate(62.8993 0.931274)"/>
</clipPath>
<clipPath id="clip2_25_35">
<rect width="154.848" height="161.271" fill="white" transform="translate(110.71 0.931274)"/>
</clipPath>
</defs>
</svg>
